<svg width="56" height="56" viewBox="0 0 56 56" fill="none" xmlns="http://www.w3.org/2000/svg">
<rect width="56" height="56" fill="#00E1D4"/>
<path d="M18.8008 35.1562C19.0195 35.3359 19.3047 35.4414 19.6562 35.4727C19.875 35.4961 19.9844 35.5781 19.9844 35.7188V35.7539C19.9609 35.918 19.8789 36 19.7383 36H16.6094C16.5391 36 16.2734 35.6953 15.8125 35.0859C15.3516 34.4766 14.8164 33.75 14.207 32.9062C13.5977 32.0625 12.9727 31.1992 12.332 30.3164C11.6914 29.4336 11.1562 28.7227 10.7266 28.1836H8.85156V34.2891C8.85156 34.7969 9.04688 35.1211 9.4375 35.2617C9.82812 35.3945 10.0234 35.5586 10.0234 35.7539C10.0234 35.918 9.94531 36 9.78906 36H5.81641C5.65234 36 5.57031 35.918 5.57031 35.7539C5.57031 35.5586 5.76562 35.3945 6.15625 35.2617C6.54688 35.1211 6.74219 34.7969 6.74219 34.2891V21.2695C6.74219 20.7695 6.54688 20.4492 6.15625 20.3086C5.76562 20.168 5.57031 19.9961 5.57031 19.793C5.57031 19.6289 5.65234 19.5469 5.81641 19.5469H12.7305C13.5352 19.5469 14.375 19.6914 15.25 19.9805C16.125 20.2617 16.8008 20.8125 17.2773 21.6328C17.6523 22.2969 17.8398 23.0938 17.8398 24.0234C17.8242 24.9062 17.5703 25.6992 17.0781 26.4023C16.6875 26.957 16.1445 27.3828 15.4492 27.6797C14.7539 27.9688 14.0938 28.1328 13.4688 28.1719L18.8008 35.1562ZM8.85156 20.5195V27.3633H11.5703C12.1094 27.3633 12.6562 27.2852 13.2109 27.1289C13.7656 26.9727 14.2422 26.6953 14.6406 26.2969C15.2656 25.6953 15.5781 24.8984 15.5781 23.9062C15.5781 22.9531 15.2539 22.1562 14.6055 21.5156C13.9102 20.8516 12.9766 20.5195 11.8047 20.5195H8.85156ZM29.9688 36.4336C27.5703 36.4336 25.4453 35.668 23.5938 34.1367C21.7422 32.6055 20.8164 30.4883 20.8164 27.7852C20.8164 25.1523 21.7148 23.043 23.5117 21.457C25.3164 19.8633 27.4688 19.0664 29.9688 19.0664C30.8672 19.0664 31.8203 19.168 32.8281 19.3711C33.8438 19.5664 34.8086 19.957 35.7227 20.543L35.4414 23.0039C35.4102 23.1445 35.332 23.2148 35.207 23.2148H35.1719C35.0781 23.207 34.9766 23.0977 34.8672 22.8867C34.4141 21.9102 33.7344 21.1914 32.8281 20.7305C31.9844 20.3164 31.0859 20.1094 30.1328 20.1094H29.8867C27.7773 20.2031 26.1289 21.0469 24.9414 22.6406C23.8711 24.0703 23.3359 25.6523 23.3359 27.3867C23.3359 27.582 23.3438 27.7773 23.3594 27.9727C23.4688 29.7695 24.1016 31.4062 25.2578 32.8828C26.4141 34.3594 27.9844 35.1445 29.9688 35.2383C30.1562 35.2461 30.3359 35.25 30.5078 35.25C31.5078 35.25 32.332 35.0977 32.9805 34.793C33.7305 34.4336 34.3594 33.7109 34.8672 32.625C34.9688 32.4062 35.0938 32.2969 35.2422 32.2969C35.2734 32.2969 35.3047 32.3008 35.3359 32.3086C35.4609 32.3555 35.5234 32.4453 35.5234 32.5781C35.5234 32.6406 35.5078 32.7109 35.4766 32.7891L34.457 35.6367C33.707 35.9492 32.9453 36.1602 32.1719 36.2695C31.3984 36.3789 30.6641 36.4336 29.9688 36.4336ZM41.6172 34.8984H46.6211C47.3477 34.8984 47.9609 34.6211 48.4609 34.0664C48.9688 33.5039 49.3516 33.0664 49.6094 32.7539C49.75 32.582 49.8594 32.4961 49.9375 32.4961C50.1016 32.4961 50.1836 32.5781 50.1836 32.7422C50.1836 32.8438 50.1758 32.9258 50.1602 32.9883L49.3047 36H38.5352C38.3945 36 38.3242 35.918 38.3242 35.7539C38.3242 35.5586 38.5195 35.3945 38.9102 35.2617C39.3008 35.1211 39.4961 34.7969 39.4961 34.2891V21.2695C39.4961 20.7617 39.3008 20.4414 38.9102 20.3086C38.5195 20.168 38.3242 19.9961 38.3242 19.793C38.3242 19.6289 38.4062 19.5469 38.5703 19.5469H49.4453V22.5586C49.4453 22.7227 49.3633 22.8047 49.1992 22.8047C49.1211 22.8047 48.9766 22.6484 48.7656 22.3359C48.375 21.7969 48.0352 21.3789 47.7461 21.082C47.4648 20.7852 47.0898 20.6367 46.6211 20.6367H41.6172V27H44.3008C44.8008 27 45.1289 26.8008 45.2852 26.4023C45.4414 25.9961 45.6211 25.793 45.8242 25.793C45.9805 25.793 46.0586 25.875 46.0586 26.0391V29.0156C46.0586 29.1797 45.9805 29.2617 45.8242 29.2617C45.6211 29.2617 45.4297 29.0625 45.25 28.6641C45.0703 28.2656 44.7305 28.0664 44.2305 28.0664H41.6172V34.8984Z" fill="white"/>
</svg>
